# File created by Blade
# Date/Time:  Tue Sep 30 19:29:51 2014
#---------------------------------------------------------
:version 1.10
:name HOM
:units
  mass 1.0
  length 1.000000
  angle deg
:documentation
     Acclaim Skeleton File
:root
   axis xyz
   order TX TY TZ RX RY RZ
   position 0.000000 0.000000 0.000000
   orientation 0 0 0
:bonedata
   begin
      id 1
      name RightUpLeg_dum
      direction -1.000000 0.000000 0.000000
      length 3.766986
      axis 0.0 0.0 0.0 xyz
   end
   begin
      id 2
      name LeftUpLeg_dum
      direction 1.000000 0.000000 0.000000
      length 3.766986
      axis 0.0 0.0 0.0 xyz
   end
   begin
      id 3
      name Spine_dum
      direction 0.000000 1.000000 0.000000
      length 7.779697
      axis 0.0 0.0 0.0 xyz
   end
   begin
      id 4
      name RightUpLeg
      direction 0.000000 -1.000000 0.000000
      length 18.017682
      axis 0.0 0.0 0.0 xyz
      dof rx ry rz
   end
   begin
      id 5
      name RightLeg
      direction 0.000000 -1.000000 0.000000
      length 16.881075
      axis 0.0 0.0 0.0 xyz
      dof rx ry rz
   end
   begin
      id 6
      name RightFoot
      direction 0.000000 -0.258819 0.965926
      length 5.770812
      axis 15.0 0.0 0.0 xyz
      dof rx ry rz
   end
   begin
      id 7
      name RightToeBase
      direction 0.000000 0.000000 1.000000
      length 2.952750
      axis 0.0 0.0 0.0 xyz
      dof rx ry rz
   end
   begin
      id 8
      name LeftUpLeg
      direction 0.000000 -1.000000 0.000000
      length 18.017682
      axis 0.0 0.0 0.0 xyz
      dof rx ry rz
   end
   begin
      id 9
      name LeftLeg
      direction 0.000000 -1.000000 0.000000
      length 16.881075
      axis 0.0 0.0 0.0 xyz
      dof rx ry rz
   end
   begin
      id 10
      name LeftFoot
      direction 0.000000 -0.258819 0.965926
      length 5.770812
      axis 15.0 0.0 0.0 xyz
      dof rx ry rz
   end
   begin
      id 11
      name LeftToeBase
      direction 0.000000 0.000000 1.000000
      length 2.952750
      axis 0.0 0.0 0.0 xyz
      dof rx ry rz
   end
   begin
      id 12
      name Spine
      direction 0.000000 1.000000 0.000000
      length 0.000000
      axis 0.0 0.0 0.0 xyz
      dof rx ry rz
   end
   begin
      id 13
      name Spine_dum1
      direction 0.000000 1.000000 0.000000
      length 10.941760
      axis 0.0 0.0 0.0 xyz
   end
   begin
      id 14
      name Spine_dum2
      direction 0.000000 1.000000 0.000000
      length 10.941760
      axis 0.0 0.0 0.0 xyz
   end
   begin
      id 15
      name Spine_dum3
      direction 0.000000 1.000000 0.000000
      length 16.646042
      axis 0.0 0.0 0.0 xyz
   end
   begin
      id 16
      name RightShoulder
      direction -1.000000 0.000000 0.000000
      length 7.708937
      axis 0.0 0.0 90.0 xyz
      dof rx ry rz
   end
   begin
      id 17
      name RightArm
      direction -1.000000 0.000000 0.000000
      length 11.521345
      axis 0.0 0.0 90.0 xyz
      dof rx ry rz
   end
   begin
      id 18
      name RightForeArm
      direction -1.000000 0.000000 0.000000
      length 10.175898
      axis 0.0 0.0 90.0 xyz
      dof ry rz rx
   end
   begin
      id 19
      name RightHand
      direction -1.000000 0.000000 0.000000
      length 0.000000
      axis 0.0 0.0 90.0 xyz
      dof rx ry rz
   end
   begin
      id 20
      name RightHand_dum1
      direction -1.000000 0.000000 0.000000
      length 3.937000
      axis 0.0 0.0 90.0 xyz
   end
   begin
      id 21
      name RightHand_dum2
      direction 0.000000 0.000000 0.000000
      length 0.000000
      axis 0.0 0.0 90.0 xyz
   end
   begin
      id 22
      name RightHandThumb1
      direction 0.000000 0.000000 1.000000
      length 3.937000
      axis 0.0 0.0 90.0 xyz
      dof rx rz ry
   end
   begin
      id 23
      name LeftShoulder
      direction 1.000000 0.000000 0.000000
      length 7.708937
      axis 0.0 0.0 -90.0 xyz
      dof rx ry rz
   end
   begin
      id 24
      name LeftArm
      direction 1.000000 0.000000 0.000000
      length 11.521345
      axis 0.0 0.0 -90.0 xyz
      dof rx ry rz
   end
   begin
      id 25
      name LeftForeArm
      direction 1.000000 0.000000 0.000000
      length 10.175898
      axis 0.0 0.0 -90.0 xyz
      dof ry rz rx
   end
   begin
      id 26
      name LeftHand
      direction 1.000000 0.000000 0.000000
      length 0.000000
      axis 0.0 0.0 -90.0 xyz
      dof rx ry rz
   end
   begin
      id 27
      name LeftHand_dum1
      direction 1.000000 0.000000 0.000000
      length 3.937000
      axis 0.0 0.0 -90.0 xyz
   end
   begin
      id 28
      name LeftHand_dum2
      direction 0.000000 0.000000 0.000000
      length 0.000000
      axis 0.0 0.0 -90.0 xyz
   end
   begin
      id 29
      name LeftHandThumb1
      direction 0.000000 0.000000 1.000000
      length 3.937000
      axis 0.0 0.0 -90.0 xyz
      dof rx rz ry
   end
   begin
      id 30
      name Head
      direction 0.000000 1.000000 0.000000
      length 4.527550
      axis 0.0 0.0 0.0 xyz
      dof rx ry rz
   end
:hierarchy
   begin
      root RightUpLeg_dum LeftUpLeg_dum Spine_dum
      RightUpLeg_dum RightUpLeg
      LeftUpLeg_dum LeftUpLeg
      Spine_dum Spine
      RightUpLeg RightLeg
      RightLeg RightFoot
      RightFoot RightToeBase
      LeftUpLeg LeftLeg
      LeftLeg LeftFoot
      LeftFoot LeftToeBase
      Spine Spine_dum1 Spine_dum2 Spine_dum3
      Spine_dum1 RightShoulder
      Spine_dum2 LeftShoulder
      Spine_dum3 Head
      RightShoulder RightArm
      RightArm RightForeArm
      RightForeArm RightHand
      RightHand RightHand_dum1 RightHand_dum2
      RightHand_dum2 RightHandThumb1
      LeftShoulder LeftArm
      LeftArm LeftForeArm
      LeftForeArm LeftHand
      LeftHand LeftHand_dum1 LeftHand_dum2
      LeftHand_dum2 LeftHandThumb1
   end

# File created by Blade
# Date/Time:  Mon Sep 22 17:46:01 2014
# Frame Rate: 120.000 fps
#------------------------------------------------------
:FULLY-SPECIFIED
:DEGREES
142
root 4.993803 37.572725 4.161241 -11.337200 -3.804533 -8.394946
RightUpLeg -13.956611 1.086904 6.051958
RightLeg 45.042677 -0.000000 -0.000000
RightFoot -10.786140 -21.696521 15.798150
RightToeBase 0.673887 -0.000000 -0.000000
LeftUpLeg 13.898215 -15.656377 -3.447630
LeftLeg 8.421175 -0.000000 -0.000000
LeftFoot -15.779707 25.711146 -12.534525
LeftToeBase 2.440144 -0.000000 -0.000000
Spine 19.512911 -8.075807 5.229581
RightShoulder 0.774026 -29.062808 -7.256676
RightArm 21.505910 -20.066221 64.913761
RightForeArm 4.539297 -0.000000 44.155701
RightHand -1.543839 -0.000000 -2.771342
RightHandThumb1 -24.326973 -0.000000 -32.862282
LeftShoulder -17.154789 32.076697 4.436420
LeftArm 60.196087 -9.004840 -67.244538
LeftForeArm 14.158514 -0.000000 88.601969
LeftHand -24.798297 -0.000000 9.709012
LeftHandThumb1 -26.253704 0.000000 33.147579
Head 9.065936 13.735747 8.220743
143
root 4.989435 37.575689 4.159335 -11.338738 -3.866282 -8.443696
RightUpLeg -14.115338 1.096779 6.133351
RightLeg 45.218990 -0.000000 -0.000000
RightFoot -10.820937 -21.734599 15.865577
RightToeBase 0.662268 -0.000000 -0.000000
LeftUpLeg 13.893688 -15.624669 -3.393961
LeftLeg 8.448761 -0.000000 -0.000000
LeftFoot -15.784942 25.764740 -12.460191
LeftToeBase 2.533196 -0.000000 -0.000000
Spine 19.572980 -8.078717 5.265505
RightShoulder 0.795793 -29.032292 -7.283528
RightArm 21.526663 -19.942506 64.930846
RightForeArm 4.573878 0.000000 44.243234
RightHand -1.592576 0.000000 -2.637284
RightHandThumb1 -24.326973 -0.000000 -32.862282
LeftShoulder -17.163087 32.113463 4.387807
LeftArm 60.181894 -9.054644 -67.216936
LeftForeArm 14.154677 -0.000000 88.727612
LeftHand -24.756456 -0.000000 9.692966
LeftHandThumb1 -26.253704 0.000000 33.147579
Head 8.990839 13.756073 8.158014
144
root 4.985452 37.578252 4.157598 -11.342292 -3.921502 -8.481005
RightUpLeg -14.278140 1.101586 6.204015
RightLeg 45.393917 -0.000000 -0.000000
RightFoot -10.824057 -21.755895 15.902873
RightToeBase 0.656890 -0.000000 -0.000000
LeftUpLeg 13.886968 -15.634158 -3.369261
LeftLeg 8.486889 -0.000000 -0.000000
LeftFoot -15.811485 25.848928 -12.462516
LeftToeBase 2.549544 -0.000000 -0.000000
Spine 19.633748 -8.070505 5.286459
RightShoulder 0.838854 -28.988832 -7.311865
RightArm 21.536832 -19.877261 64.920109
RightForeArm 4.637591 -0.000000 44.312056
RightHand -1.478974 -0.000000 -2.870181
RightHandThumb1 -24.326973 -0.000000 -32.862282
LeftShoulder -17.149753 32.119810 4.379007
LeftArm 60.137135 -9.080764 -67.189956
LeftForeArm 14.233126 -0.000000 88.851305
LeftHand -24.756280 -0.000000 9.757892
LeftHandThumb1 -26.253704 0.000000 33.147579
Head 8.928333 13.763030 8.098671
145
root 4.982127 37.580643 4.156606 -11.347758 -3.962935 -8.521041
RightUpLeg -14.427321 1.055101 6.266044
RightLeg 45.560480 -0.000000 -0.000000
RightFoot -10.785267 -21.722884 15.925337
RightToeBase 0.542444 -0.000000 -0.000000
LeftUpLeg 13.886921 -15.648316 -3.340931
LeftLeg 8.524411 -0.000000 -0.000000
LeftFoot -15.824005 25.931294 -12.433983
LeftToeBase 2.535623 -0.000000 -0.000000
Spine 19.685621 -8.075258 5.317975
RightShoulder 0.879128 -28.967156 -7.347364
RightArm 21.545859 -19.786251 64.926742
RightForeArm 4.595085 -0.000000 44.385981
RightHand -1.476229 -0.000000 -2.878492
RightHandThumb1 -24.326973 -0.000000 -32.862282
LeftShoulder -17.136122 32.132443 4.350985
LeftArm 60.107851 -9.116847 -67.149076
LeftForeArm 14.260056 0.000000 88.958265
LeftHand -24.749366 -0.000000 9.768223
LeftHandThumb1 -26.253704 0.000000 33.147579
Head 8.900959 13.743710 8.013007
146
root 4.979684 37.582112 4.156438 -11.358690 -4.000199 -8.563141
RightUpLeg -14.569832 1.046554 6.334118
RightLeg 45.732720 -0.000000 -0.000000
RightFoot -10.884067 -21.652589 16.107394
RightToeBase 0.935511 -0.000000 -0.000000
LeftUpLeg 13.887816 -15.622641 -3.296696
LeftLeg 8.555283 -0.000000 -0.000000
LeftFoot -15.834717 25.943385 -12.399069
LeftToeBase 2.472102 -0.000000 -0.000000
Spine 19.744600 -8.077232 5.354274
RightShoulder 0.897167 -28.942498 -7.380817
RightArm 21.559205 -19.688374 64.926685
RightForeArm 4.669142 -0.000000 44.461064
RightHand -1.421102 0.000000 -2.850519
RightHandThumb1 -24.326973 -0.000000 -32.862282
LeftShoulder -17.115720 32.108909 4.345985
LeftArm 60.052221 -9.127426 -67.111177
LeftForeArm 14.242777 -0.000000 89.067559
LeftHand -24.665374 0.000000 9.693574
LeftHandThumb1 -26.253704 0.000000 33.147579
Head 8.871383 13.735022 7.961041
147
root 4.977667 37.583204 4.157138 -11.384191 -4.021148 -8.599639
RightUpLeg -14.679403 1.007368 6.394829
RightLeg 45.873085 -0.000000 -0.000000
RightFoot -10.865899 -21.623087 16.114169
RightToeBase 1.052702 -0.000000 -0.000000
LeftUpLeg 13.897024 -15.599370 -3.258703
LeftLeg 8.597511 -0.000000 -0.000000
LeftFoot -15.840458 25.908099 -12.388654
LeftToeBase 2.418099 -0.000000 -0.000000
Spine 19.813722 -8.077324 5.389807
RightShoulder 0.907378 -28.916135 -7.409254
RightArm 21.550267 -19.570727 64.949215
RightForeArm 4.653889 0.000000 44.564297
RightHand -1.421914 -0.000000 -3.083333
RightHandThumb1 -24.326973 -0.000000 -32.862282
LeftShoulder -17.069760 32.092477 4.355618
LeftArm 60.006336 -9.148690 -67.069215
LeftForeArm 14.219991 -0.000000 89.172654
LeftHand -24.689242 -0.000000 9.642820
LeftHandThumb1 -26.253704 0.000000 33.147579
Head 8.856661 13.730420 7.908711
148
root 4.976324 37.583619 4.158682 -11.415343 -4.030566 -8.630209
RightUpLeg -14.778650 0.954463 6.430044
RightLeg 46.014881 -0.000000 -0.000000
RightFoot -10.737234 -21.619969 16.037289
RightToeBase 0.586914 -0.000000 -0.000000
LeftUpLeg 13.919044 -15.630450 -3.251832
LeftLeg 8.633803 -0.000000 -0.000000
LeftFoot -15.852212 25.958257 -12.375451
LeftToeBase 2.315183 -0.000000 -0.000000
Spine 19.886447 -8.090346 5.412525
RightShoulder 0.913829 -28.895004 -7.433840
RightArm 21.573170 -19.507268 64.927909
RightForeArm 4.628900 -0.000000 44.641287
RightHand -1.424288 -0.000000 -3.197108
RightHandThumb1 -24.326973 -0.000000 -32.862282
LeftShoulder -17.046967 32.089588 4.356807
LeftArm 59.984238 -9.162991 -67.021214
LeftForeArm 14.123144 -0.000000 89.270441
LeftHand -24.717616 -0.000000 9.686186
LeftHandThumb1 -26.253704 0.000000 33.147579
Head 8.850070 13.731624 7.868145
149
root 4.975585 37.584108 4.160436 -11.448206 -4.027926 -8.656844
RightUpLeg -14.859108 0.882451 6.460208
RightLeg 46.131030 -0.000000 -0.000000
RightFoot -10.685466 -21.531149 16.083235
RightToeBase 0.497346 -0.000000 -0.000000
LeftUpLeg 13.938318 -15.660554 -3.248559
LeftLeg 8.674996 -0.000000 -0.000000
LeftFoot -15.877817 25.994837 -12.360777
LeftToeBase 2.285016 -0.000000 -0.000000
Spine 19.956039 -8.115926 5.427273
RightShoulder 0.931463 -28.871082 -7.459248
RightArm 21.573184 -19.400004 64.949932
RightForeArm 4.625608 -0.000000 44.715919
RightHand -1.447543 -0.000000 -3.192543
RightHandThumb1 -24.326973 -0.000000 -32.862282
LeftShoulder -17.023348 32.099072 4.360984
LeftArm 59.965188 -9.186186 -66.977396
LeftForeArm 14.065862 -0.000000 89.362501
LeftHand -24.701270 -0.000000 9.692424
LeftHandThumb1 -26.253704 0.000000 33.147579
Head 8.866570 13.742333 7.846684
150
root 4.974393 37.584673 4.163601 -11.492518 -4.019219 -8.685232
RightUpLeg -14.916183 0.861603 6.491646
RightLeg 46.240428 -0.000000 -0.000000
RightFoot -10.662370 -21.445834 16.169446
RightToeBase 0.557679 -0.000000 -0.000000
LeftUpLeg 13.970359 -15.670428 -3.236410
LeftLeg 8.715451 -0.000000 -0.000000
LeftFoot -15.870444 25.964705 -12.369249
LeftToeBase 2.113706 -0.000000 -0.000000
Spine 20.036051 -8.143287 5.438866
RightShoulder 0.953918 -28.843890 -7.473969
RightArm 21.552812 -19.259903 64.969045
RightForeArm 4.652424 0.000000 44.806882
RightHand -1.363985 0.000000 -3.317719
RightHandThumb1 -24.326973 -0.000000 -32.862282
LeftShoulder -17.006555 32.104123 4.373104
LeftArm 59.950719 -9.197273 -66.941405
LeftForeArm 13.991450 -0.000000 89.455624
LeftHand -24.663112 -0.000000 9.647334
LeftHandThumb1 -26.253704 0.000000 33.147579
Head 8.881523 13.733972 7.832810
